<svg xmlns="http://www.w3.org/2000/svg" xmlns:se="http://svg-edit.googlecode.com" xmlns:xlink="http://www.w3.org/1999/xlink" xmlns:dc="http://purl.org/dc/elements/1.1/" xmlns:cc="http://creativecommons.org/ns#" xmlns:rdf="http://www.w3.org/1999/02/22-rdf-syntax-ns#" xmlns:inkscape="http://www.inkscape.org/namespaces/inkscape" width="263" height="476">                                    <title>my vector image</title>                                    <!-- Created with Vector Paint - http://www.vectorpaint.yaks.com/ https://chrome.google.com/webstore/detail/hnbpdiengicdefcjecjbnjnoifekhgdo -->                                    <rect id="backgroundrect" width="100%" height="100%" x="0" y="0" fill="#FFFFFF" stroke="none"/>                                <g class="currentLayer" style=""><title>Layer 1</title><path fill="#e98a8a" stroke="none" stroke-width="1" stroke-linejoin="round" stroke-dashoffset="" fill-rule="nonzero" marker-start="" marker-mid="" marker-end="" id="svg_14" d="M76.00942029994087,38.531367308396725 C76.00942029994087,17.24333035243288 100.89592723681704,-2.18382885108781e-8 131.61992195546162,-2.18382885108781e-8 C162.34396276777414,-2.18382885108781e-8 187.2303775172814,17.24333035243288 187.2303775172814,38.531367308396725 C187.2303775172814,59.81940426439076 162.34396276777414,77.06273463863737 131.61992195546162,77.06273463863737 C100.89588114315296,77.06273463863737 76.00942029994087,59.81940426439076 76.00942029994087,38.531367308396725 zM262.98141967432525,147.5997410734271 L262.98141967432525,128.140293463206 C262.98141967432525,107.66610020784996 239.0402249368201,91.06587642354717 209.47366552458783,91.06587642354717 L53.59390326403013,91.06587642354717 C24.044467653243828,91.06587642354717 0.08617216113208326,107.66610020784996 0.08617216113208326,128.140293463206 L0.08617216113208326,147.5997410734271 C0.03450114791223802,148.04143472123758 2.9736497708654497e-8,148.49512084660714 2.9736497708654497e-8,148.95473135169468 L2.9736497708654497e-8,261.0375764352081 C2.9736497708654497e-8,269.7465743251412 10.182992370622799,276.8020953979703 22.752254431747645,276.8020953979703 C35.304323551042444,276.8020953979703 45.51305921112231,269.7465423877667 45.51305921112231,261.0375764352081 L45.51305921112231,150.6141804545699 L60.77020497598727,150.6141804545699 L60.77020497598727,276.81402400083726 L60.88218956716412,276.81402400083726 L60.88218956716412,455.1306040948448 C60.88218956716412,466.72266704777223 74.4680937947004,476.14198369551366 91.21560950357195,476.14198369551366 C107.9717677771273,476.14198369551366 121.549029439972,466.7346116193018 121.549029439972,455.1306040948448 L121.549029439972,276.81402400083726 L141.56168303146,276.81402400083726 L141.56168303146,455.1306040948448 C141.56168303146,466.72266704777223 155.15599935522584,476.14198369551366 171.89505687416397,476.14198369551366 C188.65114600721597,476.14198369551366 202.2284076700907,466.7346116193018 202.2284076700907,455.1306040948448 L202.2284076700907,276.81402400083726 L202.32317627247699,276.81402400083726 L202.32317627247699,150.6141804545699 L217.5803450841221,150.6141804545699 L217.5803450841221,261.03157221209057 C217.5803450841221,269.740586070704 227.7890576973781,276.80207942928104 240.34117291030884,276.80207942928104 C252.91059629935262,276.80207942928104 263.0934273123123,269.740586070704 263.0934273123123,261.03157221209057 L263.0934273123123,148.94875906594237 C263.08487693502457,148.48317627508075 263.03311373443967,148.04143472123758 262.98141967432525,147.59972510476766 L262.98141967432525,147.5997410734271 z" style="color: rgb(0, 0, 0);" class="" fill-opacity="1"/></g></svg>