<svg width="511" height="511" xmlns="http://www.w3.org/2000/svg">

 <g>
  <title>background</title>
  <rect fill="none" id="canvas_background" height="402" width="582" y="-1" x="-1"/>
 </g>
 <g>
  <title>Layer 1</title>
  <g id="svg_2"/>
  <g id="svg_3"/>
  <g id="svg_4"/>
  <g id="svg_5"/>
  <g id="svg_6"/>
  <g id="svg_7"/>
  <g id="svg_8"/>
  <g id="svg_9"/>
  <g id="svg_10"/>
  <g id="svg_11"/>
  <g id="svg_12"/>
  <g id="svg_13"/>
  <g id="svg_14"/>
  <g id="svg_15"/>
  <g id="svg_16"/>
  <ellipse stroke-width="2" stroke="#000000" ry="254.000002" rx="254.000002" id="svg_17" cy="255.953127" cx="255.000002" fill="#b5c5fc"/>
  <path stroke="null" id="svg_1" d="m463.688849,168.858349l-74.471625,0l0,-7.152642c0,-3.48544 -2.825714,-6.311155 -6.311155,-6.311155s-6.311155,2.825714 -6.311155,6.311155l0,7.152642l-74.471625,0c-3.48544,0 -6.311155,2.825714 -6.311155,6.311155s2.825714,6.311155 6.311155,6.311155l74.471625,0l0,8.611781c-7.817417,2.640587 -13.463797,10.038943 -13.463797,18.736556l0,7.152642l-35.539374,0c-2.640587,-7.817417 -10.038943,-13.463797 -18.736556,-13.463797l-107.710373,0c-8.697613,0 -16.095969,5.64638 -18.736556,13.463797l-35.539374,0l0,-7.152642c0,-8.696771 -5.64638,-16.095127 -13.463797,-18.736556l0,-8.611781l74.471625,0c3.48544,0 6.311155,-2.825714 6.311155,-6.311155s-2.825714,-6.311155 -6.311155,-6.311155l-74.471625,0l0,-7.152642c0,-3.48544 -2.825714,-6.311155 -6.311155,-6.311155s-6.311155,2.825714 -6.311155,6.311155l0,7.152642l-74.471625,0c-3.48544,0 -6.311155,2.825714 -6.311155,6.311155s2.825714,6.311155 6.311155,6.311155l74.471625,0l0,8.611781c-7.817417,2.640587 -13.463797,10.038943 -13.463797,18.736556l0,26.927593c0,10.903992 8.870959,19.774951 19.774951,19.774951s19.774951,-8.870959 19.774951,-19.774951l0,-7.152642l35.539374,0c2.640587,7.817417 10.038943,13.463797 18.736556,13.463797l7.152642,0l0,21.108709c-11.378591,0.801096 -21.029609,8.799433 -23.831761,20.00636l-15.176223,60.704893l-8.536047,0c-3.48544,0 -6.311155,2.825714 -6.311155,6.311155s2.825714,6.311155 6.311155,6.311155l13.445284,0c0.007573,0 0.015988,0.001683 0.023562,0.001683c0.00589,0 0.010939,-0.001683 0.01683,-0.001683l13.441918,0c3.48544,0 6.311155,-2.825714 6.311155,-6.311155s-2.825714,-6.311155 -6.311155,-6.311155l-5.38047,0l14.41047,-57.643562c1.480176,-5.920705 6.610724,-10.123092 12.637456,-10.481566c2.650685,7.799746 10.039785,13.428454 18.723934,13.428454l53.855186,0c8.684149,0 16.073249,-5.628708 18.723934,-13.428454c6.02589,0.358474 11.15728,4.560861 12.637456,10.481566l14.41047,57.643562l-5.38047,0c-3.48544,0 -6.311155,2.825714 -6.311155,6.311155s2.825714,6.311155 6.311155,6.311155l13.441918,0c0.00589,0 0.010939,0.001683 0.01683,0.001683c0.007573,0 0.015988,-0.001683 0.023562,-0.001683l13.445284,0c3.48544,0 6.311155,-2.825714 6.311155,-6.311155s-2.825714,-6.311155 -6.311155,-6.311155l-8.536047,0l-15.176223,-60.704893c-2.801311,-11.207769 -12.45317,-19.205264 -23.831761,-20.00636l0,-21.108709l7.152642,0c8.697613,0 16.095969,-5.64638 18.736556,-13.463797l35.539374,0l0,7.152642c0,10.903992 8.870959,19.774951 19.774951,19.774951s19.774951,-8.870959 19.774951,-19.774951l0,-26.927593c0,-8.696771 -5.64638,-16.095127 -13.463797,-18.736556l0,-8.611781l74.471625,0c3.48544,0 6.311155,-2.825714 6.311155,-6.311155s-2.825714,-6.311155 -6.311155,-6.311155zm-329.442273,66.898239c0,3.944051 -3.208591,7.152642 -7.152642,7.152642s-7.152642,-3.208591 -7.152642,-7.152642l0,-26.927593c0,-3.944051 3.208591,-7.152642 7.152642,-7.152642s7.152642,3.208591 7.152642,7.152642l0,26.927593zm174.608612,-6.311155l-13.463797,0l-13.463797,0c-3.48544,0 -6.311155,2.825714 -6.311155,6.311155s2.825714,6.311155 6.311155,6.311155l7.152642,0l0,27.348337c0,3.944051 -3.208591,7.152642 -7.152642,7.152642l-53.855186,0c-3.944051,0 -7.152642,-3.208591 -7.152642,-7.152642l0,-27.348337l34.080235,0c3.48544,0 6.311155,-2.825714 6.311155,-6.311155s-2.825714,-6.311155 -6.311155,-6.311155l-40.39139,0l-13.463797,0c-3.944051,0 -7.152642,-3.208591 -7.152642,-7.152642s3.208591,-7.152642 7.152642,-7.152642l107.710373,0c3.944051,0 7.152642,3.208591 7.152642,7.152642s-3.208591,7.152642 -7.152642,7.152642zm81.203523,6.311155c0,3.944051 -3.208591,7.152642 -7.152642,7.152642s-7.152642,-3.208591 -7.152642,-7.152642l0,-26.927593c0,-3.944051 3.208591,-7.152642 7.152642,-7.152642s7.152642,3.208591 7.152642,7.152642l0,26.927593z"/>
 </g>
</svg>