<?xml version="1.0" encoding="UTF-8" standalone="no"?>
<!DOCTYPE svg PUBLIC "-//W3C//DTD SVG 1.1//EN" "http://www.w3.org/Graphics/SVG/1.1/DTD/svg11.dtd">
<svg version="1.1" xmlns="http://www.w3.org/2000/svg" xmlns:xlink="http://www.w3.org/1999/xlink" preserveAspectRatio="xMidYMid meet" viewBox="-1 -1 190.08108108108107 118.86486486486478" width="186.08" height="114.86"><defs><path d="M127.93 10.77L127.94 10.62L127.95 10.47L127.97 10.33L128.01 10.19L128.05 10.05L128.1 9.91L128.16 9.77L128.23 9.63L128.3 9.5L128.39 9.37L128.48 9.24L128.58 9.12L128.69 9L128.8 8.88L128.92 8.76L129.05 8.65L129.19 8.54L129.33 8.43L129.48 8.33L129.63 8.23L129.8 8.14L129.96 8.04L130.13 7.96L130.31 7.87L130.5 7.79L130.68 7.72L130.88 7.65L131.07 7.58L131.28 7.52L131.48 7.46L131.69 7.41L131.91 7.36L132.13 7.32L132.35 7.28L132.57 7.25L132.8 7.23L133.03 7.21L133.27 7.19L133.51 7.18L133.75 7.18L157.01 7.18L157.25 7.18L157.48 7.19L157.72 7.21L157.95 7.23L158.18 7.25L158.4 7.28L158.62 7.32L158.84 7.36L159.06 7.41L159.27 7.46L159.48 7.52L159.68 7.58L159.88 7.65L160.07 7.72L160.26 7.79L160.44 7.87L160.62 7.96L160.79 8.04L160.96 8.14L161.12 8.23L161.27 8.33L161.42 8.43L161.56 8.54L161.7 8.65L161.83 8.76L161.95 8.88L162.06 9L162.17 9.12L162.27 9.24L162.36 9.37L162.45 9.5L162.52 9.63L162.59 9.77L162.65 9.91L162.7 10.05L162.74 10.19L162.78 10.33L162.8 10.47L162.82 10.62L162.82 10.77L162.82 48.46L186.08 64.61L162.82 64.61L162.82 114.86L111.04 114.86L111.04 114.86L111.05 114.7L111.05 79.83L111.04 79.67L111.03 79.52L111 79.36L110.97 79.2L110.93 79.05L110.87 78.9L110.81 78.75L110.74 78.61L110.66 78.47L110.58 78.33L110.48 78.19L110.38 78.05L110.27 77.92L110.15 77.79L110.02 77.67L109.89 77.55L109.75 77.43L109.6 77.31L109.45 77.2L109.29 77.09L109.12 76.99L108.95 76.89L108.77 76.8L108.59 76.71L108.4 76.62L108.21 76.54L108.01 76.46L107.8 76.39L107.59 76.33L107.38 76.26L107.16 76.21L106.94 76.16L106.72 76.11L106.49 76.07L106.25 76.04L106.02 76.01L105.78 75.99L105.54 75.97L105.29 75.96L105.05 75.96L81.04 75.96L80.79 75.96L80.54 75.97L80.3 75.99L80.06 76.01L79.83 76.04L79.59 76.07L79.36 76.11L79.14 76.16L78.92 76.21L78.7 76.26L78.49 76.33L78.28 76.39L78.07 76.46L77.87 76.54L77.68 76.62L77.49 76.71L77.31 76.8L77.13 76.89L76.96 76.99L76.79 77.09L76.63 77.2L76.48 77.31L76.33 77.43L76.19 77.55L76.06 77.67L75.93 77.79L75.81 77.92L75.7 78.05L75.6 78.19L75.5 78.33L75.42 78.47L75.34 78.61L75.27 78.75L75.21 78.9L75.15 79.05L75.11 79.2L75.08 79.36L75.05 79.52L75.04 79.67L75.03 79.83L75.03 114.7L75.04 114.86L75.04 114.86L23.26 114.86L23.26 64.61L0 64.61L93.04 0L127.93 24.23L127.93 10.77Z" id="d1GcOXnu3l"></path></defs><g><g><use xlink:href="#d1GcOXnu3l" opacity="1" fill="#c767b9" fill-opacity="1"></use></g></g></svg>